<svg id="dataiq_logo" xmlns="http://www.w3.org/2000/svg" viewBox="0 0 1279.79 254.85">
  <defs>
    <style>
      .cls-1 {
        fill: #abbf5b;
      }

      .cls-1,
      .cls-2 {
        stroke-width: 0px;
      }

      .cls-2 {
        fill: #fff;
      }
    </style>
  </defs>
  <g id="Layer_1-2">
    <path class="cls-2"
      d="M198,175.65c6.8,0,12.4-1.25,16.8-3.75,4.4-2.5,7.85-5.55,10.35-9.15,2.5-3.6,4.2-7.55,5.1-11.85.9-4.3,1.35-8.25,1.35-11.85s-.45-7.55-1.35-11.85c-.9-4.3-2.6-8.25-5.1-11.85-2.5-3.6-5.95-6.65-10.35-9.15-4.4-2.5-10-3.75-16.8-3.75H29.4c-4,0-7.4-1.4-10.2-4.2-2.8-2.8-4.2-6.2-4.2-10.2s1.4-7.4,4.2-10.2,6.2-4.2,10.2-4.2h174.9c8.6,0,16.3,2,23.1,6,6.8,4,12.6,9.15,17.4,15.45,4.8,6.3,8.45,13.3,10.95,21,2.5,7.7,3.75,15.35,3.75,22.95s-1.2,14.9-3.6,22.5c-2.4,7.6-5.85,14.5-10.35,20.7-4.5,6.2-9.95,11.35-16.35,15.45-6.4,4.1-13.7,6.35-21.9,6.75H29.4c-4,0-7.4-1.4-10.2-4.2-2.8-2.8-4.2-6.2-4.2-10.2v-51c0-4,1.4-7.4,4.2-10.2s6.2-4.2,10.2-4.2,7.4,1.4,10.2,4.2c2.8,2.8,4.2,6.2,4.2,10.2v36.6h154.2Z" />
    <path class="cls-2"
      d="M307.5,199.05c-3,3.6-6.7,5.4-11.1,5.4-4,0-7.4-1.4-10.2-4.2-2.8-2.8-4.2-6.2-4.2-10.2,0-3.6,1-6.5,3-8.7l72.9-98.1c3.4-4.6,7.9-8.35,13.5-11.25,5.6-2.9,11.6-4.35,18-4.35,6,0,11.7,1.3,17.1,3.9,5.4,2.6,9.8,6.2,13.2,10.8l72.9,97.5c1.2,1.4,2.2,2.95,3,4.65.8,1.7,1.2,3.55,1.2,5.55,0,4-1.4,7.4-4.2,10.2s-6.2,4.2-10.2,4.2c-4.8,0-8.6-1.9-11.4-5.7l-69.9-93.3c-1.4-1.6-3.15-3.35-5.25-5.25-2.1-1.9-4.25-2.85-6.45-2.85s-4.35.95-6.45,2.85c-2.1,1.9-3.75,3.65-4.95,5.25l-70.5,93.6ZM370.8,172.05c0-5.2,1.8-9.6,5.4-13.2,3.6-3.6,8-5.4,13.2-5.4s9.6,1.8,13.2,5.4,5.4,8,5.4,13.2-1.8,9.6-5.4,13.2-8,5.4-13.2,5.4-9.6-1.8-13.2-5.4c-3.6-3.6-5.4-8-5.4-13.2Z" />
    <path class="cls-2"
      d="M710.1,73.65c4,0,7.4,1.4,10.2,4.2,2.8,2.8,4.2,6.2,4.2,10.2s-1.3,7.05-3.9,9.75c-2.6,2.7-5.7,4.25-9.3,4.65h-60.3c-6,.4-10.95,1.85-14.85,4.35-3.9,2.5-6.95,5.55-9.15,9.15-2.2,3.6-3.7,7.5-4.5,11.7-.8,4.2-1.2,8-1.2,11.4v51c0,4-1.4,7.4-4.2,10.2-2.8,2.8-6.2,4.2-10.2,4.2s-7.4-1.4-10.2-4.2c-2.8-2.8-4.2-6.2-4.2-10.2v-51c0-6.2.8-12.45,2.4-18.75,1.6-6.3,4-12.25,7.2-17.85h-98.4c-4,0-7.4-1.4-10.2-4.2-2.8-2.8-4.2-6.2-4.2-10.2s1.4-7.4,4.2-10.2,6.2-4.2,10.2-4.2h206.4Z" />
    <path class="cls-2"
      d="M742.49,199.05c-3,3.6-6.7,5.4-11.1,5.4-4,0-7.4-1.4-10.2-4.2-2.8-2.8-4.2-6.2-4.2-10.2,0-3.6,1-6.5,3-8.7l72.9-98.1c3.4-4.6,7.9-8.35,13.5-11.25,5.6-2.9,11.6-4.35,18-4.35,6,0,11.7,1.3,17.1,3.9,5.4,2.6,9.8,6.2,13.2,10.8l72.9,97.5c1.2,1.4,2.2,2.95,3,4.65.8,1.7,1.2,3.55,1.2,5.55,0,4-1.4,7.4-4.2,10.2-2.8,2.8-6.2,4.2-10.2,4.2-4.8,0-8.6-1.9-11.4-5.7l-69.9-93.3c-1.4-1.6-3.15-3.35-5.25-5.25-2.1-1.9-4.25-2.85-6.45-2.85s-4.35.95-6.45,2.85c-2.1,1.9-3.75,3.65-4.95,5.25l-70.5,93.6ZM805.79,172.05c0-5.2,1.8-9.6,5.4-13.2,3.6-3.6,8-5.4,13.2-5.4s9.6,1.8,13.2,5.4c3.6,3.6,5.4,8,5.4,13.2s-1.8,9.6-5.4,13.2c-3.6,3.6-8,5.4-13.2,5.4s-9.6-1.8-13.2-5.4c-3.6-3.6-5.4-8-5.4-13.2Z" />
    <path class="cls-1"
      d="M986.39,200.25c-2.8,2.8-6.2,4.2-10.2,4.2s-7.4-1.4-10.2-4.2c-2.8-2.8-4.2-6.2-4.2-10.2v-102c0-4,1.4-7.4,4.2-10.2,2.8-2.8,6.2-4.2,10.2-4.2s7.4,1.4,10.2,4.2c2.8,2.8,4.2,6.2,4.2,10.2v102c0,4-1.4,7.4-4.2,10.2Z" />
    <path class="cls-1"
      d="M1203.29,175.65c6.8,0,12.4-1.25,16.8-3.75,4.4-2.5,7.85-5.55,10.35-9.15,2.5-3.6,4.2-7.55,5.1-11.85.9-4.3,1.35-8.25,1.35-11.85s-.45-7.55-1.35-11.85c-.9-4.3-2.6-8.25-5.1-11.85-2.5-3.6-5.95-6.65-10.35-9.15-4.4-2.5-10-3.75-16.8-3.75h-121.2c-7,0-12.65,1.25-16.95,3.75-4.3,2.5-7.7,5.55-10.2,9.15-2.5,3.6-4.2,7.55-5.1,11.85-.9,4.3-1.35,8.25-1.35,11.85s.45,7.55,1.35,11.85c.9,4.3,2.6,8.25,5.1,11.85,2.5,3.6,5.9,6.65,10.2,9.15,4.3,2.5,9.95,3.75,16.95,3.75h61.8c4,0,7.4,1.4,10.2,4.2,2.8,2.8,4.2,6.2,4.2,10.2s-1.4,7.4-4.2,10.2c-2.8,2.8-6.2,4.2-10.2,4.2h-71.1c-8.2-.4-15.5-2.65-21.9-6.75-6.4-4.1-11.85-9.25-16.35-15.45-4.5-6.2-7.95-13.1-10.35-20.7-2.4-7.6-3.6-15.1-3.6-22.5s1.25-15.25,3.75-22.95c2.5-7.7,6.15-14.7,10.95-21s10.6-11.45,17.4-15.45c6.8-4,14.5-6,23.1-6h136.8c8.2.4,15.5,2.65,21.9,6.75,6.4,4.1,11.85,9.25,16.35,15.45,4.5,6.2,7.95,13.1,10.35,20.7,2.4,7.6,3.6,15.1,3.6,22.5s-1.25,15.25-3.75,22.95c-2.5,7.7-6.15,14.7-10.95,21-4.8,6.3-10.6,11.45-17.4,15.45-6.8,4-14.5,6-23.1,6h-6.3c-4,0-7.4-1.4-10.2-4.2-2.8-2.8-4.2-6.2-4.2-10.2s1.4-7.4,4.2-10.2c2.8-2.8,6.2-4.2,10.2-4.2ZM1154.99,151.05c0-5.2,1.8-9.6,5.4-13.2,3.6-3.6,8-5.4,13.2-5.4s9.6,1.8,13.2,5.4c3.6,3.6,5.4,8,5.4,13.2s-1.8,9.6-5.4,13.2c-3.6,3.6-8,5.4-13.2,5.4s-9.6-1.8-13.2-5.4c-3.6-3.6-5.4-8-5.4-13.2Z" />
  </g>
</svg>