<svg id="dataiq_logo_stacked" xmlns="http://www.w3.org/2000/svg" viewBox="0 0 1006.45 793.53">
  <defs>
    <style>
      .cls-1 {
        fill: #eee;
      }

      .cls-1,
      .cls-2 {
        stroke-width: 0px;
      }

      .cls-2 {
        fill: #abbf5b;
      }
    </style>
  </defs>
  <g id="Layer_1-2">
    <path class="cls-1"
      d="M228.03,175.65c6.8,0,12.4-1.25,16.8-3.75,4.4-2.5,7.85-5.55,10.35-9.15,2.5-3.6,4.2-7.55,5.1-11.85.9-4.3,1.35-8.25,1.35-11.85s-.45-7.55-1.35-11.85c-.9-4.3-2.6-8.25-5.1-11.85-2.5-3.6-5.95-6.65-10.35-9.15-4.4-2.5-10-3.75-16.8-3.75H59.43c-4,0-7.4-1.4-10.2-4.2-2.8-2.8-4.2-6.2-4.2-10.2s1.4-7.4,4.2-10.2,6.2-4.2,10.2-4.2h174.9c8.6,0,16.3,2,23.1,6,6.8,4,12.6,9.15,17.4,15.45,4.8,6.3,8.45,13.3,10.95,21,2.5,7.7,3.75,15.35,3.75,22.95s-1.2,14.9-3.6,22.5c-2.4,7.6-5.85,14.5-10.35,20.7-4.5,6.2-9.95,11.35-16.35,15.45-6.4,4.1-13.7,6.35-21.9,6.75H59.43c-4,0-7.4-1.4-10.2-4.2-2.8-2.8-4.2-6.2-4.2-10.2v-51c0-4,1.4-7.4,4.2-10.2s6.2-4.2,10.2-4.2,7.4,1.4,10.2,4.2c2.8,2.8,4.2,6.2,4.2,10.2v36.6h154.2Z" />
    <path class="cls-1"
      d="M337.53,199.05c-3,3.6-6.7,5.4-11.1,5.4-4,0-7.4-1.4-10.2-4.2-2.8-2.8-4.2-6.2-4.2-10.2,0-3.6,1-6.5,3-8.7l72.9-98.1c3.4-4.6,7.9-8.35,13.5-11.25,5.6-2.9,11.6-4.35,18-4.35,6,0,11.7,1.3,17.1,3.9,5.4,2.6,9.8,6.2,13.2,10.8l72.9,97.5c1.2,1.4,2.2,2.95,3,4.65.8,1.7,1.2,3.55,1.2,5.55,0,4-1.4,7.4-4.2,10.2s-6.2,4.2-10.2,4.2c-4.8,0-8.6-1.9-11.4-5.7l-69.9-93.3c-1.4-1.6-3.15-3.35-5.25-5.25-2.1-1.9-4.25-2.85-6.45-2.85s-4.35.95-6.45,2.85c-2.1,1.9-3.75,3.65-4.95,5.25l-70.5,93.6ZM400.83,172.05c0-5.2,1.8-9.6,5.4-13.2,3.6-3.6,8-5.4,13.2-5.4s9.6,1.8,13.2,5.4,5.4,8,5.4,13.2-1.8,9.6-5.4,13.2-8,5.4-13.2,5.4-9.6-1.8-13.2-5.4c-3.6-3.6-5.4-8-5.4-13.2Z" />
    <path class="cls-1"
      d="M740.13,73.65c4,0,7.4,1.4,10.2,4.2,2.8,2.8,4.2,6.2,4.2,10.2s-1.3,7.05-3.9,9.75c-2.6,2.7-5.7,4.25-9.3,4.65h-60.3c-6,.4-10.95,1.85-14.85,4.35-3.9,2.5-6.95,5.55-9.15,9.15-2.2,3.6-3.7,7.5-4.5,11.7-.8,4.2-1.2,8-1.2,11.4v51c0,4-1.4,7.4-4.2,10.2-2.8,2.8-6.2,4.2-10.2,4.2s-7.4-1.4-10.2-4.2c-2.8-2.8-4.2-6.2-4.2-10.2v-51c0-6.2.8-12.45,2.4-18.75,1.6-6.3,4-12.25,7.2-17.85h-98.4c-4,0-7.4-1.4-10.2-4.2-2.8-2.8-4.2-6.2-4.2-10.2s1.4-7.4,4.2-10.2,6.2-4.2,10.2-4.2h206.4Z" />
    <path class="cls-1"
      d="M772.53,199.05c-3,3.6-6.7,5.4-11.1,5.4-4,0-7.4-1.4-10.2-4.2-2.8-2.8-4.2-6.2-4.2-10.2,0-3.6,1-6.5,3-8.7l72.9-98.1c3.4-4.6,7.9-8.35,13.5-11.25,5.6-2.9,11.6-4.35,18-4.35,6,0,11.7,1.3,17.1,3.9,5.4,2.6,9.8,6.2,13.2,10.8l72.9,97.5c1.2,1.4,2.2,2.95,3,4.65.8,1.7,1.2,3.55,1.2,5.55,0,4-1.4,7.4-4.2,10.2-2.8,2.8-6.2,4.2-10.2,4.2-4.8,0-8.6-1.9-11.4-5.7l-69.9-93.3c-1.4-1.6-3.15-3.35-5.25-5.25-2.1-1.9-4.25-2.85-6.45-2.85s-4.35.95-6.45,2.85c-2.1,1.9-3.75,3.65-4.95,5.25l-70.5,93.6ZM835.83,172.05c0-5.2,1.8-9.6,5.4-13.2,3.6-3.6,8-5.4,13.2-5.4s9.6,1.8,13.2,5.4c3.6,3.6,5.4,8,5.4,13.2s-1.8,9.6-5.4,13.2c-3.6,3.6-8,5.4-13.2,5.4s-9.6-1.8-13.2-5.4c-3.6-3.6-5.4-8-5.4-13.2Z" />
    <path class="cls-1"
      d="M978.45,225.25c-.12.14-.27.22-.44.22-.16,0-.3-.06-.41-.17-.11-.11-.17-.25-.17-.41,0-.14.04-.26.12-.35l2.92-3.92c.14-.18.32-.33.54-.45.22-.12.46-.17.72-.17.24,0,.47.05.68.16s.39.25.53.43l2.92,3.9c.05.06.09.12.12.19.03.07.05.14.05.22,0,.16-.06.3-.17.41-.11.11-.25.17-.41.17-.19,0-.34-.08-.46-.23l-2.8-3.73c-.06-.06-.13-.13-.21-.21s-.17-.11-.26-.11-.17.04-.26.11-.15.15-.2.21l-2.82,3.74ZM980.98,224.17c0-.21.07-.38.22-.53.14-.14.32-.22.53-.22s.38.07.53.22c.14.14.22.32.22.53s-.07.38-.22.53c-.14.14-.32.22-.53.22s-.38-.07-.53-.22c-.14-.14-.22-.32-.22-.53Z" />
    <path class="cls-2"
      d="M119.69,628.84c-8.47,8.46-18.74,12.67-30.83,12.67s-22.37-4.21-30.83-12.67c-8.47-8.44-12.69-18.69-12.69-30.77v-307.66c0-12.06,4.22-22.31,12.69-30.77,8.46-8.44,18.73-12.67,30.83-12.67s22.36,4.23,30.83,12.67c8.46,8.46,12.69,18.71,12.69,30.77v307.66c0,12.07-4.24,22.33-12.69,30.77Z" />
    <path class="cls-2"
      d="M775.25,554.64c20.54,0,37.47-3.76,50.78-11.31,13.29-7.54,23.72-16.74,31.28-27.6,7.55-10.86,12.69-22.76,15.41-35.74,2.72-12.97,4.08-24.88,4.08-35.74s-1.36-22.76-4.08-35.74c-2.72-12.97-7.86-24.88-15.41-35.74-7.57-10.86-17.99-20.05-31.28-27.6-13.3-7.54-30.23-11.31-50.78-11.31h-366.32c-21.17,0-38.24,3.77-51.23,11.31-13.01,7.55-23.28,16.74-30.83,27.6-7.57,10.86-12.69,22.78-15.41,35.74-2.72,12.98-4.08,24.88-4.08,35.74s1.36,22.78,4.08,35.74c2.72,12.98,7.85,24.88,15.41,35.74,7.55,10.86,17.82,20.06,30.83,27.6,12.99,7.55,30.06,11.31,51.23,11.31h186.78c12.08,0,22.36,4.23,30.83,12.67,8.46,8.46,12.69,18.71,12.69,30.77s-4.24,22.33-12.69,30.77c-8.47,8.46-18.74,12.67-30.83,12.67h-214.89c-24.79-1.2-46.85-7.99-66.19-20.36-19.35-12.36-35.82-27.9-49.42-46.6-13.6-18.69-24.03-39.5-31.28-62.44-7.25-22.92-10.88-45.54-10.88-67.87s3.77-45.99,11.33-69.22c7.55-23.22,18.59-44.34,33.1-63.34,14.51-19,32.03-34.53,52.59-46.6,20.54-12.06,43.82-18.1,69.82-18.1h413.47c24.78,1.22,46.84,8,66.19,20.36,19.34,12.37,35.82,27.91,49.42,46.6,13.6,18.71,24.03,39.52,31.28,62.44,7.25,22.93,10.88,45.56,10.88,67.87s-3.78,46.01-11.33,69.22c-7.57,23.23-18.59,44.34-33.1,63.34-14.51,19-32.05,34.54-52.59,46.6-20.56,12.07-43.83,18.1-69.82,18.1h-19.04c-12.1,0-22.37-4.21-30.83-12.67-8.47-8.44-12.69-18.69-12.69-30.77s4.22-22.31,12.69-30.77c8.46-8.44,18.73-12.67,30.83-12.67ZM629.27,480.43c0-15.68,5.44-28.96,16.32-39.82s24.17-16.29,39.9-16.29,29.02,5.43,39.9,16.29c10.88,10.86,16.32,24.14,16.32,39.82s-5.44,28.96-16.32,39.82c-10.88,10.86-24.18,16.29-39.9,16.29s-29.01-5.43-39.9-16.29c-10.88-10.86-16.32-24.12-16.32-39.82Z" />
  </g>
</svg>