<svg xmlns="http://www.w3.org/2000/svg" id="Layer_2" viewBox="0 0 1033.87 235.77"><script xmlns=""/>
  <defs>
    <style>
      .cls-1 {
        fill: #FFF;
        stroke-width: 0px;
      }
      .cls-2 {
        fill: #a1c34e;
        stroke-width: 0px;
      }
    </style>
  </defs>
  <g id="Layer_1-2">
    <path class="cls-1" d="M351.53,122.49c5,7.99,9.9,16.07,15.08,23.96,2.6,3.95,5.87,7.44,8.59,11.31,5.8,8.26,11.06,16.92,17.24,24.87,6.14,7.92,12.4,16.05,20,22.43,5.5,4.61,13.19,6.74,20.08,9.5,3.71,1.49,7.83,1.91,11.72,2.96,3.67.99,4.75,4.32,3.21,7.81-2.55,5.82-7.38,6.96-13.01,8.47-7.03,1.88-13.92,1.86-20.95,1.96-7.27.1-13.86-2.63-20.75-4.43-18.44-4.83-29.05-19.41-41.12-31.95-6.21-6.45-10.27-14.96-15.47-22.42-2.99-4.29-6.46-8.24-9.47-12.51-5.41-7.68-10.42-15.65-16.01-23.19-4.68-6.31-9.82-12.3-15.08-18.13-1.07-1.19-3.6-1.44-5.46-1.46-14.33-.12-28.67.11-42.99-.17-4.47-.09-5.73,1.41-5.71,5.67.13,21-.13,42,.1,62.99.1,9.38-8.03,17.84-17.52,17.34-2.83-.15-5.66-.02-8.5-.02-9.64-.02-14.54-4.9-14.54-14.5,0-58.99,0-117.98.02-176.98,0-7.82,5.43-13.2,13.27-13.2,43.49,0,86.99-.32,130.48.29,7.8.11,15.61,3.8,23.28,6.25,3.52,1.12,6.7,3.29,10.09,4.87,10.86,5.05,16.32,14.61,21.39,24.74,2.18,4.36,2.79,8.63,2.67,13.3-.13,5.16-.34,10.35.04,15.49.66,8.78-2.3,16.65-6.66,23.72-4.09,6.63-9.03,13.04-14.78,18.24-5.2,4.7-11.92,7.68-19.12,9.12-3.43.69-6.66,2.37-10.11,3.66ZM293.34,39.75c-15.31,0-30.63.11-45.94-.07-4.28-.05-6.02,1.37-5.95,5.72.16,10.48,0,20.97.01,31.46,0,6.71.04,6.77,6.62,6.77,27.63.01,55.27-.03,82.9.04,5.14.01,9.89-.47,14.75-2.85,6.85-3.35,12.45-7.66,14.14-15.14,3.08-13.62-7.37-25.87-21.58-25.92-14.98-.05-29.96-.01-44.95,0Z"/>
    <path class="cls-1" d="M524.87.45c7.33,0,14.68-.32,21.99.1,6.33.36,12.94.6,18.85,2.59,8.73,2.94,17.01,7.26,25.37,11.24,14.41,6.85,24.69,18.77,34.89,30.34,4.73,5.37,6.65,13.26,9.63,20.1,1.61,3.7,2.76,7.59,4.14,11.39.22.62.73,1.19.77,1.8.87,13.48,3.29,27.12,1.99,40.4-.9,9.17-2.95,18.69-6.01,27.94-5.72,17.31-16.69,30.28-29.91,41.42-7.35,6.19-16.74,10.16-25.59,14.31-5.64,2.64-12.26,3.17-17.94,5.75-5.94,2.69-12.5.47-17.82,2.55-9.51,3.71-19.02,2.35-28.39,1.99-9.62-.36-19.11-3.43-28.75-4.38-10.78-1.06-20.13-5.66-29.08-10.87-11.06-6.44-22.57-12.98-29.94-23.72-4.58-6.68-10.52-12.74-12.41-21.36-1.44-6.55-4.65-12.71-7.07-19.04-.12-.31-.25-.64-.25-.96-.17-12.17-4.9-24.05-2.73-36.33,1.29-7.3,3.13-14.53,5.1-21.69,1.63-5.91,3.21-11.95,5.89-17.41,2.93-5.96,6.75-11.59,10.85-16.84,3.35-4.3,7.82-7.7,11.53-11.74,7.27-7.91,16.57-12.78,26.05-17.19,6.9-3.21,14.08-6.36,21.47-7.79,9.28-1.79,18.9-1.86,28.38-2.55,2.98-.22,6-.03,9-.03ZM525.11,176.53c6.85-1.24,13.75-2.28,20.55-3.78,4.86-1.07,9.82-2.25,14.33-4.29,4.99-2.26,9.74-5.26,14.19-8.5,4.74-3.44,10.69-6.68,13.15-11.52,5.25-10.31,11.12-20.48,11.27-33.03.2-16.88-.03-33.01-9.78-48.05-6.38-9.85-14.89-16.51-24.51-22.18-5.02-2.95-10.55-5.25-16.12-6.98-5.55-1.72-11.4-2.78-17.19-3.4-11.11-1.19-21.68,1.95-32.26,4.81-10.88,2.94-20.15,8.66-28.08,16.43-3.7,3.63-7.2,7.79-9.61,12.33-3.63,6.84-8.36,14.11-8.77,21.42-.73,12.88-2.39,25.97,1.48,39,2.74,9.22,7.45,17.22,13.28,24.19,7.26,8.67,17.31,13.84,28.3,17.45,9.72,3.19,19.32,5.67,29.78,6.07Z"/>
    <path class="cls-1" d="M860.98,105.11c0-29.66,0-59.31.02-88.97,0-6.67,6.55-13.31,13.15-13.31,47.15-.02,94.3.04,141.45-.07,6.91-.02,10.06,5.16,12.97,9.55,5.12,7.71,2.96,16.88-4.18,23.05-.73.63-1.55,1.42-2.42,1.56-6.29,1.02-12.61,2.63-18.93,2.68-30.99.28-61.98.12-92.97.13-7.87,0-7.89.01-7.91,8.09-.02,9.83.27,19.67-.13,29.49-.21,5.27,1.8,6.44,6.65,6.4,26.32-.19,52.65-.14,78.97-.06,11.95.04,21.14,8.86,20.71,19.59-.44,11.03-7.9,18.36-18.72,18.36-26.32,0-52.65,0-78.97.01-6.95,0-8.48,1.54-8.5,8.54-.04,11.33.21,22.67-.13,33.99-.14,4.85,1.42,6.29,6.21,6.27,34.65-.16,69.31-.36,103.96.18,6.17.1,12.44,3.26,18.34,5.77,1.74.74,3.3,4.1,3.32,6.27.06,5-.36,10.14-1.53,14.99-1.81,7.49-8.27,9.7-14.79,9.73-47.65.23-95.3.13-142.95.11-7.3,0-13.63-6.52-13.63-13.9,0-29.49,0-58.98,0-88.47Z"/>
    <path class="cls-2" d="M739.69,207.66c-4,0-8,.05-11.99,0-7.44-.1-13.26-2.5-16.37-10.06-2.35-5.72-5.75-10.99-8.37-16.6-4.75-10.17-9.22-20.48-13.91-30.68-5.72-12.42-11.64-24.74-17.28-37.19-2.07-4.57-3.42-9.47-5.39-14.09-2.05-4.8-4.45-9.44-6.69-14.15-6.44-13.54-12.95-27.04-19.28-40.62-2.88-6.18-5.47-12.49-8.08-18.79-.42-1.02-.38-2.31-.28-3.45,1.01-11.98,6.47-22.36,21.22-21.58.33.02.68.06,1,0,11.87-2.25,17.95,4.66,22.35,14.17,5.11,11.07,10.98,21.87,15.03,33.32,3.62,10.25,8.9,19.51,13.59,29.16,3.7,7.59,6.92,15.42,10.26,23.19,3.47,8.04,7.7,15.88,10,24.25,2.35,8.54,7.12,15.68,10.62,23.53.65,1.45.2,3.41.88,4.83.57,1.17,1.98,2.4,3.19,2.62.8.14,2.33-1.28,2.81-2.34,2.87-6.37,5.53-12.84,8.26-19.28,2.59-6.1,5.12-12.23,7.79-18.29,4.84-10.99,9.71-21.97,14.67-32.9,4.36-9.62,8.91-19.15,13.28-28.76,3.64-7.99,7.22-16,10.68-24.06,2.88-6.71,4.85-13.91,8.5-20.14,2.95-5.03,6.75-10.37,14.38-9.35,5.64.75,11.58-1.21,16.93,2.26,3.9,2.53,7.77,4.81,8.31,10.19.26,2.52,2.52,5.16,2.07,7.37-1,4.85-2.93,9.55-4.87,14.16-3.21,7.63-6.61,15.19-10.16,22.68-3.22,6.8-6.96,13.35-10.08,20.19-3.84,8.43-7.12,17.11-10.92,25.55-5.67,12.59-11.63,25.05-17.37,37.61-4.68,10.23-9.22,20.53-13.81,30.8-4.29,9.63-8.37,19.36-12.92,28.87-2.4,5.03-7.48,6.91-12.58,7.48-5.1.57-10.31.13-15.48.13Z"/>
    <path class="cls-1" d="M75.13,116.89c0-23.66-.1-47.32.08-70.98.04-4.69-1.27-6.56-6.2-6.26-6.47.39-13.01.37-19.49.03-12.82-.66-25.62-1.61-38.42-2.56-1.2-.09-2.59-.73-3.46-1.57C-.38,27.74-2.59,21.71,3.44,11.22,7.07,4.88,12.07,2.76,19.06,2.78c50.49.13,100.98.13,151.47,0,6.93-.02,11.95,1.97,15.49,8.38,4.71,8.5,3.62,17.75-3.81,24.15-.84.72-1.89,1.51-2.93,1.65-7.79,1.02-15.58,2.31-23.41,2.67-9.81.46-19.66.34-29.49.04-4.96-.15-6.7,1.46-6.66,6.54.28,35.31.35,70.63.4,105.95.02,11.32.11,22.66-.46,33.96-.42,8.31-4.21,15.29-11.02,20.39-.39.29-.88.64-1.33.64-8.52.11-18.02,2.94-24.92-3.16-3.93-3.47-6.74-10.24-6.91-15.62-.73-23.81-.32-47.65-.32-71.47h-.03Z"/>
    <path class="cls-2" d="M761.21,66.98c-1.38,5.63-.27,10.84-5.43,15.37-4.73,4.16-10.22,6.34-15.66,6.91-10.66,1.1-22.3-11.04-22.55-21.63-.33-13.85,12.24-22.87,22.71-22.88,6.46,0,13.49,2.66,17.01,9.01,2.18,3.93,2.67,8.79,3.92,13.23Z"/>
  </g>
<script xmlns=""/></svg>
