<svg id="Layer_2" xmlns="http://www.w3.org/2000/svg" viewBox="0 0 3708.67 1540.6">
  <defs>
    <style>
      .cls-1 {
        fill: #FFFFFF;
        stroke-width: 0px;
      }
      .cls-2 {
        fill: #a1c34e;
        stroke-width: 0px;
      }
    </style>
  </defs>
  <g id="Layer_1-2">
    <path class="cls-1"
      d="M1258.77,425.87c3.22,5.63,5.53,10.34,8.43,14.65,55.12,81.77,112.06,162.26,171.12,241.22,19.68,26.31,43.25,48.83,71.91,65.58,21.53,12.59,44.58,20.76,69.2,24.64,7.23,1.14,14.59,1.99,21.59,3.99,12.34,3.52,17.38,15.28,11.85,26.93-5.54,11.66-15.4,18.4-27.58,21.1-12.33,2.73-24.86,4.83-37.42,6.17-34.63,3.7-69.14,3.29-103.33-4.49-57.51-13.09-103.97-43.98-140.74-89.26-23.93-29.46-46.53-60.03-68.84-90.75-46.59-64.14-92.6-128.7-138.83-193.11-20.66-28.79-22.96-30-57.68-29.99-47.97.01-95.95-.02-143.92.01-5.99,0-12.02-.11-17.96.54-8.13.89-11.7,4.41-12.87,12.78-.82,5.91-.92,11.95-.92,17.93.09,66.63.33,133.26.32,199.89,0,9.3-.44,18.68-1.78,27.87-4.05,27.77-18.16,42.67-45.69,48.42-15.78,3.3-31.86,3.66-47.73,1.19-30.56-4.77-49.59-26.5-51.13-57.48-.23-4.65-.08-9.33-.09-13.99-.06-192.56-.12-385.13-.18-577.69,0-6-.02-11.99.09-17.99.55-31.84,25-58.44,54.66-61.82,5.94-.68,11.93-1.27,17.89-1.27,127.26-.04,254.52-.12,381.79.16,23.3.05,46.68.68,69.89,2.67,55.21,4.72,105.01,23.48,147.27,60.18,29.51,25.62,50.74,56.6,57.97,95.53,8.55,46.04,7.54,91.82-11.68,135.3-28.27,63.97-77.91,103.12-145.08,120.89-9.55,2.53-19.77,3.13-30.54,10.2ZM1042.33,300.76l.02-1.38c14.66,0,29.33.22,43.99-.04,38.64-.71,77.29-1.28,115.92-2.58,27.55-.93,51.8-11.54,73.45-28.18,18.43-14.16,28.49-32.98,30.43-56.22,3.18-38.06-15.94-66.16-52.77-76.32-12.81-3.53-25.94-5.96-38.96-8.69-25.65-5.39-51.75-4.59-77.69-4.64-81.31-.17-162.63.21-243.94.41-4.66.01-9.36-.04-13.97.47-9.2,1.03-13.36,4.71-14.63,13.52-.85,5.9-.92,11.95-.93,17.94-.07,38.66-.05,77.32-.02,115.97,0,4.66-.06,9.35.43,13.98.81,7.68,3.59,10.81,10.88,12.26,3.89.78,7.92,1.12,11.9,1.18,51.97.83,103.94,1.57,155.91,2.34Z" />
    <path class="cls-1"
      d="M1904.83.7c52.8,1.83,104.8,7.95,154.83,26.47,44.85,16.6,85.53,39.99,121.8,71.15,53.98,46.38,88.13,104.56,102.14,174.16,5.25,26.06,10.29,52.57,11.24,79.02,5.13,143.69-50.74,254.68-178.52,325.84-40.65,22.64-84.48,35.88-130.4,42.11-30.35,4.11-60.78,7.98-91.31,10.21-16.47,1.2-33.25-.73-49.82-2.18-51.37-4.48-101.39-14.87-148.92-35.55-29.44-12.8-57.1-28.68-82.72-48.05-65.72-49.68-105.07-115.62-120.51-196.14-6.16-32.13-9.11-64.57-8.21-97.37,3.29-120.15,66.29-250.13,208.11-310.74C1762.43,9.76,1820.64-1.22,1904.83.7ZM1886.78,612.62c54.85-.53,106.89-12.79,155.67-38.12,8.25-4.28,16.11-9.41,23.74-14.74,35.71-24.93,58.81-59.54,74.02-99.55,25.71-67.63,20.95-134.69-6.64-200.54-16.37-39.07-42.74-70.47-77.82-94.27-29.54-20.04-62.01-33.53-96.71-41.7-55.28-13.01-109.76-8.4-163.82,7.28-69.66,20.2-118.75,64.28-148.88,129.46-17.31,37.45-25.47,77.14-21.22,118.63,1.77,17.21,4.11,34.43,7.44,51.4,10.72,54.68,37.17,99.62,84.58,130.41,51.48,33.43,107.78,51.83,169.65,51.74Z" />
    <path class="cls-1"
      d="M3390.69,733.08c-79.99,0-159.98.01-239.96-.03-5.99,0-12.01-.13-17.97-.72-29.83-2.99-48.66-21.35-52.12-51.28-.99-8.57-.77-17.3-.77-25.96,0-146.65.1-293.29.06-439.94-.01-41.99-.48-83.99-.6-125.98-.03-9.32-.04-18.71.99-27.95,3.59-32.48,26.37-54.55,59.09-57.56,7.28-.67,14.65-.65,21.98-.65,157.31.09,314.62.22,471.93.37,6.66,0,13.39-.2,19.97.62,44.73,5.6,68.84,53.17,46.46,91.55-9.73,16.68-24.47,26.1-43.58,28.16-7.92.85-15.98.56-23.97.57-121.98.03-243.96,0-365.95.09-8.63,0-17.31.5-25.87,1.57-7.29.92-12.11,5.33-12.94,13.07-.7,6.61-1.7,13.24-1.73,19.87-.18,37.99-.12,75.99-.14,113.98,0,2-.05,4,.04,6,.75,16.77,4.63,20.87,21.9,21.13,63.97.97,127.95,2.08,191.92,2.36,31.31.13,62.62-1.47,93.93-2.25,13.49-.34,26.54,2.06,39.17,6.68,25.5,9.32,39.8,30.17,38.97,56.58-.78,24.75-18.08,48.92-41.53,55.73-10.73,3.11-22.24,4.46-33.45,4.76-25.31.69-50.65.23-75.98.24-65.32,0-130.65.01-195.97.03-5.33,0-10.69-.23-15.99.18-13.95,1.1-20.1,6.89-22.26,21-.7,4.58-.71,9.3-.72,13.95-.04,39.99-.12,79.99.08,119.98.04,7.28.91,14.62,2.06,21.82,1.09,6.87,6.12,10.13,12.72,10.58,6.64.45,13.32.45,19.98.46,123.98.12,247.96.17,371.95.41,9.94.02,20.09.25,29.78,2.2,30.13,6.07,47.73,29.62,46.42,60.74-1.21,28.75-21.77,52.21-50.02,56.62-6.55,1.02-13.28,1.23-19.93,1.24-82.65.08-165.31.05-247.96.05,0-.09,0-.18,0-.27Z" />
    <path class="cls-2"
      d="M2642.16,570.88c9.78-7.99,11.66-15.33,14.63-21.88,30.75-67.98,61.52-135.95,91.95-204.07,41.57-93.06,82.74-186.3,124.39-279.32,5.41-12.09,11.6-24.1,19.23-34.87,11.6-16.38,27.61-26.87,48.27-28.71,43.65-3.89,98.46,36.04,76.01,97.21-1.6,4.37-3.6,8.6-5.54,12.84-82.22,179.23-164.42,358.47-246.72,537.66-7.51,16.34-15.69,32.37-23.42,48.61-10.39,21.81-27.45,34.4-51.64,35.08-29.96.84-59.98,1.04-89.94.22-26.77-.73-44.14-15.78-55.07-39.69-22.43-49.08-45.4-97.91-67.96-146.93-49.02-106.51-97.95-213.06-146.84-319.63-18.61-40.57-36.95-81.25-55.51-121.85-7.12-15.59-10.24-31.38-5.82-48.5,9.46-36.7,49.83-66.67,97.97-50.1,12.45,4.29,22.07,12.67,29.19,23.35,6.62,9.93,12.63,20.43,17.52,31.3,31.96,71.08,63.56,142.33,95.26,213.53,39.02,87.63,77.99,175.29,117.1,262.88,3.8,8.5,8.46,16.61,12.74,24.89,1.21,2.34,2.46,4.66,4.22,7.99Z" />
    <path class="cls-2"
      d="M2643.63,971.29c-10.16,11.88-14.9,22.8-19.75,33.66-22.52,50.49-45.06,100.97-67.53,151.47-46.84,105.27-93.57,210.59-140.56,315.8-5.42,12.12-11.36,24.17-18.46,35.35-19.81,31.19-47.92,36.67-76,30.51-29.26-6.42-51.73-31.42-55.69-61.22-.94-7.07-.19-14.69,1.4-21.69,1.76-7.7,4.95-15.18,8.26-22.41,88.59-193.12,177.29-386.19,265.97-579.27,1.39-3.03,2.82-6.04,4.29-9.02,10.96-22.32,28.93-34.94,53.66-35.68,29.29-.88,58.65-.82,87.95.1,23.92.75,41.63,12.71,52.22,34.46,8.45,17.37,17,34.69,25.06,52.24,64.21,139.82,128.31,279.69,192.46,419.54,18.05,39.35,36.12,78.69,54.21,118.02,5.31,11.56,9.7,23.22,9.71,36.34,0,12.42-3.18,23.71-9.33,34.26-15.17,26-49.51,41.47-78.98,35.59-12.08-2.41-22.3-8.45-31.32-16.74-11.54-10.59-19.16-23.74-25.44-37.87-20.57-46.25-41.24-92.46-61.85-138.7-41.2-92.47-82.33-184.98-123.62-277.41-12.22-27.36-24.8-54.57-37.4-81.77-2.14-4.62-5.2-8.82-9.25-15.57Z" />
    <path class="cls-1"
      d="M336.8.07c87.96,0,175.91-.09,263.87.13,9.22.02,18.7.84,27.61,3.06,32.74,8.15,49.7,42.99,42.99,73.42-5.12,23.26-25.66,40.71-51.66,43.25-16.54,1.61-33.26,1.85-49.91,1.92-39.31.16-78.62-.23-117.93-.19-7.96,0-15.95.58-23.86,1.53-6.74.8-10.72,5.26-11.45,11.96-.72,6.61-1.23,13.28-1.21,19.92.66,158.58,1.41,317.16,2.14,475.74.05,10.66.72,21.37-.04,31.97-.66,9.21-1.87,18.65-4.71,27.39-6.98,21.52-22.33,33.97-44.64,38.03-21.53,3.91-42.53,1.05-63.08-5.25-19.14-5.86-29.61-19.86-32.3-39.3-1.27-9.18-1.01-18.61-1-27.93.03-164.58.15-329.17.17-493.75,0-7.97.06-16.06-1.21-23.88-1.71-10.61-6.69-15.05-17.23-16.39-5.91-.75-11.96-.47-17.95-.47-54.64.03-109.27.16-163.91.08-8.64-.01-17.39-.24-25.89-1.6-23.71-3.8-39.8-19.47-44.23-42.9-2.51-13.29-1.69-26.52,3.17-39.36C10.86,20.76,22.66,9.81,39.4,4.12,49.6.64,60.18-.01,70.93,0c88.62.12,177.24.07,265.86.06Z" />
    <path class="cls-1"
      d="M3218.79,1345.04c0,39.26.17,78.52-.11,117.78-.08,10.6-.62,21.36-2.48,31.77-4.47,24.98-21.82,42.06-47.08,44.56-17.11,1.69-34.71,1.92-51.76-.09-23.93-2.83-40.35-16.71-45.86-40.91-2.19-9.61-3.09-19.71-3.14-29.59-.27-53.9-.05-107.8-.08-161.7-.02-29.28-.53-58.56-.15-87.83.13-9.86,1.17-20.01,3.8-29.48,5.98-21.52,20.62-35.31,42.01-41.5,19.63-5.69,39.53-5.78,59.1.08,23.71,7.1,38.48,23.15,43.42,47.42,1.84,9.05,2.62,18.46,2.68,27.71.28,40.59.12,81.18.12,121.77-.16,0-.32,0-.48,0Z" />
    <path class="cls-1"
      d="M3067.85,1008.38c-1.67-36.12,32.77-69.31,73.3-68.78,42.23.55,72.83,30.3,72.71,71.36-.14,46.67-28.93,76.67-74.01,76.11-49.95-.63-71.78-37.91-72.01-78.68Z" />
    <path class="cls-2"
      d="M2649.59,316.29c-43.8-.18-74.67-25.11-78.76-59.78-2.81-23.83,3.07-46.11,19.17-65.03,25.24-29.67,87.42-29.43,111.13,5.79,17.15,25.48,20.58,53.42,6.54,81.36-13.26,26.39-36.76,37.11-58.07,37.65Z" />
  </g>
</svg>