<svg id="trove_logo" xmlns="http://www.w3.org/2000/svg" viewBox="0 0 3790 831.59">
  <defs>
    <style>
      .cls-1 {
        fill: #FFFFFF;
        stroke-width: 0px;
      }
      .cls-2 {
        fill: #a1c34e;
        stroke-width: 0px;
      }
    </style>
  </defs>
  <g id="Layer_1-2">
    <path class="cls-1"
      d="M1272.59,424.26c2.27,3.73,3.7,6.31,5.35,8.75,56.39,83.67,114.77,165.94,175.08,246.82,18.03,24.18,39.42,45.08,64.87,61.61,25.88,16.8,54.28,26.5,84.77,30.49,3.63.47,7.26,1.04,10.82,1.83,16.11,3.59,22.01,18.34,12.73,32.02-6.26,9.23-15.14,15.38-25.88,17.52-58.41,11.64-116.47,12.84-173.29-8.31-42.19-15.71-77.39-41.74-105.71-76.3-24.04-29.34-46.8-59.78-69.12-90.47-48.56-66.78-96.48-134.03-144.67-201.08-2.33-3.24-4.6-6.54-7.09-9.66-7.89-9.9-17.9-15.75-30.87-15.77-3,0-6-.1-8.99-.11-52.64-.02-105.29,0-157.93-.04-21.2-.02-25.12,3.76-25.09,24.89.12,70.25.33,140.5.37,210.75,0,12.28,0,24.57-4.19,36.5-5.55,15.82-15.63,27.25-31.61,32.25-21.97,6.88-44.36,8.34-66.98,2.6-27.65-7.01-41.83-29-43.53-55.44-.17-2.65-.06-5.33-.06-7.99-.05-198.1-.14-396.21-.06-594.31,0-7.91.5-16.09,2.52-23.68,7.03-26.38,30.17-44.64,57.5-46.31,2.33-.14,4.66-.17,6.99-.17,141.27.14,282.55.12,423.82.56,41.28.13,81.65,6.42,119.72,23.39,39.13,17.44,72.16,42.56,96.35,78.36,15.65,23.14,23.7,49.02,26.06,76.67,2.79,32.72,2.46,65.38-8.18,96.85-21.25,62.79-63.38,106.04-125.15,129.88-12.98,5.01-26.77,7.88-40.15,11.87-5.96,1.77-11.82,3.86-18.4,6.04ZM1039.15,299.26c67.09-1.03,118.03-1.94,168.98-2.56,28.19-.34,53.67-8.84,76.75-24.67,24.94-17.11,37.93-40.65,36.24-71.2-1.59-28.67-15.58-53.96-46.15-63.23-28.45-8.63-57.46-14.73-87.29-14.82-95.24-.3-190.48-.2-285.72-.22-18.98,0-23.7,4.22-23.83,23.47-.3,44.59-.21,89.18,0,133.77.06,13.71,3.51,16.67,17.39,17.17,53.24,1.89,106.48,4.5,143.64,2.3Z" />
    <path class="cls-1"
      d="M1926.59,2.09c49.8.21,99.12,4.19,147.15,18.51,62.44,18.62,117.49,49.91,163.89,95.77,48.59,48.02,75.98,106.82,87.39,173.65,5.79,33.88,9.94,67.82,8.02,102.3-3.99,71.89-24.06,138.1-69.22,195.34-29.48,37.37-65.8,66.72-107.33,89.79-45.19,25.1-93.9,38.87-144.99,44.85-26.79,3.14-53.56,6.52-80.43,8.8-11.19.95-22.62-.36-33.9-1.2-48.32-3.59-95.94-11.08-141.58-28.06-62.26-23.16-116.91-57.7-159.69-109.29-31.41-37.87-51.53-81.33-62.42-129.14-11.18-49.1-14.63-98.65-8.48-148.78,4.17-33.96,13.47-66.48,27.13-97.75,36.56-83.72,98.13-141.98,181.81-177.55,34.75-14.78,70.7-25.69,107.99-31.74,28-4.54,56.31-5.71,84.66-5.51ZM1925.48,613.63c34.83-.36,68.83-6.09,102.09-16.51,26.19-8.21,51.25-18.87,73.81-34.66,48.75-34.15,75.43-82.64,87.64-139.43,11.36-52.85,5-104.69-14.79-154.77-13.17-33.3-32.89-62.25-60.51-85.5-41.41-34.87-89.57-54.55-142.75-62.02-45.82-6.43-90.95-1.58-135.37,11.14-57.45,16.46-102.65,49.06-134.81,99.78-25.5,40.21-39.35,84.26-38.48,131.33.71,38.12,6.31,76.29,21.32,112.18,15.34,36.7,39.41,66.19,73.01,87.58,51.45,32.75,107.46,50.77,168.84,50.88Z" />
    <path class="cls-1"
      d="M3149.42,370.5c0-95.91-.03-191.81.06-287.72,0-8.3.35-16.66,1.38-24.88,4.15-33.02,27.36-54.78,60.6-57.12,5.65-.4,11.32-.5,16.98-.5,160.3.11,320.6.29,480.9.3,14.67,0,28.6,2.17,41.02,10.28,21.19,13.84,31.28,33.71,28.17,58.71-3.04,24.43-16.43,42.11-40.58,49.46-8.74,2.66-18.38,3.19-27.62,3.21-125.31.2-250.61.13-375.92.15-6.33,0-12.68-.06-18.99.37-12.67.86-17.06,5.24-18.17,17.91-.41,4.63-.37,9.32-.38,13.97-.08,39.96-.12,79.92-.17,119.88,0,2.66-.06,5.34.15,7.99.77,9.44,4.11,13,13.52,14.17,3.96.49,7.97.64,11.96.72,91.96,1.98,183.92,3.22,275.89-.05,14.07-.5,27.93.95,41.48,5.06,18.27,5.53,31.91,16.23,38.8,34.47,13.22,35-8.22,74.29-44.98,81.53-10.7,2.11-21.81,2.98-32.73,3.02-90.31.33-180.63.32-270.94.43-4.33,0-8.67-.04-12.99.27-11.24.79-17.67,6.65-19.49,17.77-.48,2.94-.51,5.97-.51,8.96-.02,44.62-.1,89.25.06,133.87.09,23.89,3.03,26.62,27.4,26.64,128.31.12,256.61.19,384.92.36,7.64.01,15.46-.16,22.89,1.28,39.96,7.74,51.54,42.63,45.96,71.08-5.58,28.43-28.13,46.89-57.16,48.23-2.33.11-4.66.19-6.99.19-166.3-.07-332.6-.11-498.89-.34-7.92-.01-16.06-.82-23.72-2.76-23.02-5.84-37.88-24.65-40.36-50.22-.67-6.95-.9-13.96-.91-20.95-.06-95.24-.04-190.48-.04-285.73-.2,0-.4,0-.61,0Z" />
    <path class="cls-2"
      d="M2713.03,732c-12.66,0-25.33-.07-37.99.02-28.73.19-48.59-12.94-60.56-39.03-23.59-51.43-47.67-102.64-71.34-154.04-48.86-106.12-97.61-212.29-146.34-318.47-17.91-39.02-35.46-78.2-53.51-117.15-13.01-28.07-9.76-54.13,10.34-77.12,20.83-23.83,47.63-30.43,78.01-22.37,12.67,3.36,22.95,10.9,30.64,21.29,6.1,8.25,12.08,16.89,16.3,26.18,26.96,59.4,53.46,119,80.02,178.57,45.66,102.45,91.22,204.95,136.94,307.38,3.79,8.49,8.31,16.68,12.84,24.82,3.76,6.74,7.81,6.67,11.14-.29,8.63-18.01,17.2-36.06,25.37-54.28,43.03-95.97,85.99-191.97,128.84-288.02,24-53.8,47.75-107.7,71.6-161.57,5.69-12.85,12.23-25.12,22.02-35.45,19.22-20.29,42.45-27.1,69.17-19.31,27.45,8.01,46.99,25.1,53.76,53.73,3.69,15.62,1.12,31.05-5.76,45.75-15.09,32.26-30.09,64.57-44.93,96.94-69.51,151.57-138.94,303.19-208.47,454.75-6.52,14.22-13.55,28.2-20.38,42.28-11.47,23.68-30.61,35.18-56.72,35.39-13.66.11-27.33.02-40.99.02Z" />
    <path class="cls-1"
      d="M337.49.66c89.29,0,178.58.04,267.87-.05,10.44-.01,20.58,1.06,30.3,5.07,36.59,15.1,49.62,65.55,24.29,94.55-10.52,12.05-24.13,19.07-39.92,20.43-16.23,1.4-32.59,1.73-48.9,1.8-41.98.19-83.96-.05-125.94-.05-5.32,0-10.68.09-15.96.65-7.09.76-11.82,4.75-12.7,11.99-.8,6.58-1.24,13.26-1.21,19.89.74,158.8,1.56,317.6,2.38,476.4.05,8.99.45,17.98.24,26.96-.15,6.63-.45,13.35-1.69,19.84-6.22,32.53-25.96,49.75-59.06,51.75-17.81,1.07-35.27-1.31-52.23-6.67-20.15-6.37-31.82-22.32-33.37-45.03-.36-5.31-.28-10.65-.28-15.97.04-169.79.11-339.59.1-509.38,0-5.3-.11-10.71-1.17-15.86-2.07-10.06-7.05-14.09-17.3-14.62-5.98-.31-11.99-.07-17.98-.07-56.64.02-113.28.14-169.92-.03-7.61-.02-15.42-.61-22.78-2.42C9.43,111.75-2.48,86.05.42,56.41,3.91,20.71,26.8.82,63.62.74c91.29-.19,182.58-.06,273.87-.06v-.02Z" />
    <path class="cls-2"
      d="M2785.3,239.65c.41,42.34-27.73,72.48-66.38,74.9-27.68,1.73-50.28-8-67-30.25-12.92-17.2-14.67-36.68-10.14-57.07,1.22-5.5,2.65-11.05,4.82-16.23,11.28-26.97,31.93-41.01,60.94-42.49,23.37-1.19,44.25,4.92,60.33,23.01,13.13,14.77,16.77,32.83,17.42,48.13Z" />
  </g>
</svg>